<svg width="376" height="146" viewBox="0 0 376 146" fill="none" xmlns="http://www.w3.org/2000/svg">
<path d="M16.5954 39V38.28C17.3634 38.232 17.9394 38.136 18.3234 37.992C18.7074 37.848 18.9594 37.56 19.0794 37.128C19.2234 36.696 19.2954 36.048 19.2954 35.184V17.328C19.2954 16.44 19.2234 15.792 19.0794 15.384C18.9594 14.952 18.6954 14.664 18.2874 14.52C17.9034 14.352 17.3394 14.256 16.5954 14.232V13.512C17.2434 13.536 18.0834 13.56 19.1154 13.584C20.1714 13.608 21.2154 13.62 22.2474 13.62C23.3514 13.62 24.3834 13.608 25.3434 13.584C26.3274 13.56 27.1194 13.536 27.7194 13.512V14.232C26.9514 14.256 26.3634 14.352 25.9554 14.52C25.5714 14.664 25.3194 14.952 25.1994 15.384C25.0794 15.792 25.0194 16.44 25.0194 17.328V35.184C25.0194 36.048 25.0794 36.696 25.1994 37.128C25.3434 37.56 25.6074 37.848 25.9914 37.992C26.3754 38.136 26.9514 38.232 27.7194 38.28V39C27.1194 38.952 26.3274 38.928 25.3434 38.928C24.3834 38.904 23.3514 38.892 22.2474 38.892C21.2154 38.892 20.1714 38.904 19.1154 38.928C18.0834 38.928 17.2434 38.952 16.5954 39ZM1.33142 39V38.28C2.09942 38.232 2.67542 38.136 3.05942 37.992C3.44342 37.848 3.69542 37.56 3.81542 37.128C3.95942 36.696 4.03142 36.048 4.03142 35.184V17.328C4.03142 16.44 3.95942 15.792 3.81542 15.384C3.69542 14.952 3.43142 14.664 3.02342 14.52C2.63942 14.352 2.07542 14.256 1.33142 14.232V13.512C1.95542 13.536 2.75942 13.56 3.74342 13.584C4.75142 13.608 5.84342 13.62 7.01942 13.62C8.02742 13.62 9.02342 13.608 10.0074 13.584C10.9914 13.56 11.8074 13.536 12.4554 13.512V14.232C11.6874 14.256 11.0994 14.352 10.6914 14.52C10.3074 14.664 10.0554 14.952 9.93542 15.384C9.81542 15.792 9.75542 16.44 9.75542 17.328V35.184C9.75542 36.048 9.81542 36.696 9.93542 37.128C10.0794 37.56 10.3434 37.848 10.7274 37.992C11.1114 38.136 11.6874 38.232 12.4554 38.28V39C11.8074 38.952 10.9914 38.928 10.0074 38.928C9.02342 38.904 8.02742 38.892 7.01942 38.892C5.84342 38.892 4.75142 38.904 3.74342 38.928C2.75942 38.928 1.95542 38.952 1.33142 39ZM7.41542 26.544V25.824H21.6354V26.544H7.41542ZM42.9111 13.008C45.4551 13.008 47.6751 13.524 49.5711 14.556C51.4911 15.588 52.9791 17.076 54.0351 19.02C55.0911 20.94 55.6191 23.28 55.6191 26.04C55.6191 28.728 55.0791 31.08 53.9991 33.096C52.9191 35.112 51.4071 36.684 49.4631 37.812C47.5431 38.94 45.3471 39.504 42.8751 39.504C40.3311 39.504 38.0991 38.988 36.1791 37.956C34.2831 36.924 32.8071 35.436 31.7511 33.492C30.6951 31.548 30.1671 29.208 30.1671 26.472C30.1671 23.784 30.7071 21.432 31.7871 19.416C32.8911 17.4 34.3911 15.828 36.2871 14.7C38.2071 13.572 40.4151 13.008 42.9111 13.008ZM42.7671 13.656C41.4231 13.656 40.2471 14.196 39.2391 15.276C38.2551 16.356 37.4871 17.844 36.9351 19.74C36.4071 21.636 36.1431 23.832 36.1431 26.328C36.1431 28.872 36.4431 31.092 37.0431 32.988C37.6671 34.86 38.4951 36.312 39.5271 37.344C40.5831 38.352 41.7471 38.856 43.0191 38.856C44.3631 38.856 45.5271 38.316 46.5111 37.236C47.5191 36.156 48.2871 34.668 48.8151 32.772C49.3671 30.852 49.6431 28.656 49.6431 26.184C49.6431 23.616 49.3311 21.396 48.7071 19.524C48.1071 17.652 47.2791 16.212 46.2231 15.204C45.1911 14.172 44.0391 13.656 42.7671 13.656ZM58.1088 13.512C58.7088 13.536 59.5128 13.56 60.5208 13.584C61.5528 13.608 62.5728 13.62 63.5808 13.62C64.7328 13.62 65.8488 13.608 66.9288 13.584C68.0088 13.56 68.7768 13.548 69.2328 13.548C72.2088 13.548 74.4288 14.076 75.8928 15.132C77.3808 16.188 78.1248 17.544 78.1248 19.2C78.1248 20.04 77.8728 20.892 77.3688 21.756C76.8648 22.62 76.0848 23.388 75.0288 24.06C73.9728 24.732 72.6048 25.224 70.9248 25.536V25.608C73.1808 25.776 74.9688 26.184 76.2888 26.832C77.6088 27.48 78.5568 28.26 79.1328 29.172C79.7088 30.084 79.9968 31.032 79.9968 32.016C79.9968 34.272 79.1088 36 77.3328 37.2C75.5808 38.4 73.1568 39 70.0608 39C69.4848 39 68.6448 38.988 67.5408 38.964C66.4608 38.916 65.1648 38.892 63.6528 38.892C62.5968 38.892 61.5528 38.904 60.5208 38.928C59.5128 38.928 58.7088 38.952 58.1088 39V38.28C58.8768 38.232 59.4528 38.136 59.8368 37.992C60.2208 37.848 60.4728 37.56 60.5928 37.128C60.7368 36.696 60.8088 36.048 60.8088 35.184V17.328C60.8088 16.44 60.7368 15.792 60.5928 15.384C60.4728 14.952 60.2088 14.664 59.8008 14.52C59.4168 14.352 58.8528 14.256 58.1088 14.232V13.512ZM68.7648 14.232C67.8288 14.232 67.2168 14.436 66.9288 14.844C66.6648 15.252 66.5328 16.08 66.5328 17.328V35.184C66.5328 36.432 66.6888 37.248 67.0008 37.632C67.3128 37.992 67.9848 38.172 69.0168 38.172C70.7448 38.172 72.0048 37.632 72.7968 36.552C73.6128 35.448 74.0208 33.888 74.0208 31.872C74.0208 30.024 73.5528 28.596 72.6168 27.588C71.7048 26.58 70.1808 26.076 68.0448 26.076H64.9848C64.9848 26.076 64.9848 25.98 64.9848 25.788C64.9848 25.572 64.9848 25.464 64.9848 25.464H68.0808C69.2088 25.464 70.0728 25.2 70.6728 24.672C71.2728 24.12 71.6928 23.4 71.9328 22.512C72.1728 21.6 72.2928 20.628 72.2928 19.596C72.2928 17.82 72.0168 16.488 71.4648 15.6C70.9128 14.688 70.0128 14.232 68.7648 14.232ZM93.8281 13.44L102.576 35.976C102.912 36.84 103.284 37.44 103.692 37.776C104.124 38.088 104.508 38.256 104.844 38.28V39C104.124 38.952 103.272 38.928 102.288 38.928C101.328 38.904 100.356 38.892 99.3721 38.892C98.2681 38.892 97.2241 38.904 96.2401 38.928C95.2561 38.928 94.4761 38.952 93.9001 39V38.28C95.1241 38.232 95.8921 38.028 96.2041 37.668C96.5401 37.284 96.4681 36.48 95.9881 35.256L89.8681 18.516L90.5161 17.58L85.0441 31.836C84.3721 33.612 84.0361 34.956 84.0361 35.868C84.0601 36.78 84.3601 37.404 84.9361 37.74C85.5121 38.052 86.2801 38.232 87.2401 38.28V39C86.4481 38.952 85.6921 38.928 84.9721 38.928C84.2521 38.904 83.5201 38.892 82.7761 38.892C82.2481 38.892 81.7441 38.904 81.2641 38.928C80.8081 38.928 80.4001 38.952 80.0401 39V38.28C80.5441 38.184 81.0601 37.86 81.5881 37.308C82.1161 36.756 82.6321 35.82 83.1361 34.5L91.3441 13.44C91.7281 13.464 92.1361 13.476 92.5681 13.476C93.0241 13.476 93.4441 13.464 93.8281 13.44ZM96.3481 28.632V29.352H85.6201L85.9801 28.632H96.3481ZM128.496 13.512V14.232C127.728 14.256 127.152 14.352 126.768 14.52C126.384 14.664 126.12 14.952 125.976 15.384C125.856 15.792 125.796 16.44 125.796 17.328V35.184C125.796 36.048 125.856 36.696 125.976 37.128C126.12 37.56 126.384 37.848 126.768 37.992C127.152 38.136 127.728 38.232 128.496 38.28V39C127.896 38.952 127.08 38.928 126.048 38.928C125.04 38.904 123.96 38.892 122.808 38.892C121.824 38.892 120.828 38.904 119.82 38.928C118.812 38.928 117.996 38.952 117.372 39V38.28C118.116 38.232 118.68 38.136 119.064 37.992C119.472 37.848 119.736 37.56 119.856 37.128C120 36.696 120.072 36.048 120.072 35.184V17.328C120.072 16.08 119.928 15.252 119.64 14.844C119.376 14.436 118.776 14.232 117.84 14.232C116.208 14.232 115.056 14.748 114.384 15.78C113.712 16.812 113.376 18.252 113.376 20.1C113.376 21.228 113.508 22.26 113.772 23.196C114.036 24.108 114.54 24.84 115.284 25.392C116.028 25.92 117.108 26.184 118.524 26.184H121.62C121.62 26.184 121.62 26.304 121.62 26.544C121.62 26.784 121.62 26.904 121.62 26.904H118.164C115.332 26.904 113.136 26.58 111.576 25.932C110.016 25.284 108.924 24.432 108.3 23.376C107.7 22.32 107.4 21.204 107.4 20.028C107.4 17.964 108.216 16.368 109.848 15.24C111.504 14.112 114.012 13.548 117.372 13.548C117.828 13.548 118.584 13.56 119.64 13.584C120.72 13.608 121.848 13.62 123.024 13.62C124.032 13.62 125.04 13.608 126.048 13.584C127.08 13.56 127.896 13.536 128.496 13.512ZM121.404 26.292L121.332 26.904H117.444C116.7 26.904 116.112 27.132 115.68 27.588C115.272 28.02 114.948 28.62 114.708 29.388C114.468 30.132 114.264 31.008 114.096 32.016L113.448 35.616C113.184 37.104 112.632 38.124 111.792 38.676C110.952 39.228 109.896 39.504 108.624 39.504C107.592 39.504 106.704 39.336 105.96 39C105.216 38.688 104.532 38.16 103.908 37.416L104.412 36.984C104.652 37.248 104.868 37.452 105.06 37.596C105.276 37.716 105.54 37.788 105.852 37.812C106.308 37.812 106.656 37.62 106.896 37.236C107.136 36.852 107.352 36.18 107.544 35.22L108.3 31.512C108.612 29.976 109.32 28.872 110.424 28.2C111.528 27.528 113.112 27.06 115.176 26.796C115.632 26.724 116.088 26.664 116.544 26.616C117 26.568 117.6 26.52 118.344 26.472C119.112 26.4 120.132 26.34 121.404 26.292ZM150.444 13.512V14.232C149.676 14.256 149.088 14.352 148.68 14.52C148.296 14.664 148.044 14.952 147.924 15.384C147.804 15.792 147.744 16.44 147.744 17.328V35.184C147.744 36.048 147.804 36.696 147.924 37.128C148.068 37.56 148.332 37.848 148.716 37.992C149.1 38.136 149.676 38.232 150.444 38.28V39C149.796 38.952 148.98 38.928 147.996 38.928C147.012 38.904 146.016 38.892 145.008 38.892C143.856 38.892 142.764 38.904 141.732 38.928C140.724 38.928 139.92 38.952 139.32 39V38.28C140.088 38.232 140.664 38.136 141.048 37.992C141.432 37.848 141.684 37.56 141.804 37.128C141.948 36.696 142.02 36.048 142.02 35.184V17.328C142.02 16.44 141.948 15.792 141.804 15.384C141.684 14.952 141.42 14.664 141.012 14.52C140.628 14.352 140.064 14.256 139.32 14.232V13.512C139.92 13.536 140.724 13.56 141.732 13.584C142.764 13.608 143.856 13.62 145.008 13.62C146.016 13.62 147.012 13.608 147.996 13.584C148.98 13.56 149.796 13.536 150.444 13.512ZM148.788 25.392C150.708 25.392 152.376 25.536 153.792 25.824C155.232 26.088 156.384 26.58 157.248 27.3C158.136 27.996 158.736 29.028 159.048 30.396L160.092 35.22C160.284 36.204 160.5 36.888 160.74 37.272C160.98 37.632 161.34 37.812 161.82 37.812C162.108 37.788 162.348 37.716 162.54 37.596C162.756 37.452 162.984 37.248 163.224 36.984L163.728 37.416C163.08 38.136 162.384 38.664 161.64 39C160.896 39.336 159.996 39.504 158.94 39.504C157.644 39.504 156.576 39.24 155.736 38.712C154.896 38.16 154.344 37.128 154.08 35.616L153.108 30.108C152.94 29.148 152.688 28.368 152.352 27.768C152.04 27.168 151.56 26.724 150.912 26.436C150.264 26.148 149.364 26.004 148.212 26.004H146.808V25.392H148.788ZM147.6 26.004V25.392C148.632 25.368 149.568 25.092 150.408 24.564C151.248 24.012 152.148 23.172 153.108 22.044L155.232 19.488C156.168 18.408 156.708 17.484 156.852 16.716C156.996 15.924 156.84 15.312 156.384 14.88C155.928 14.448 155.22 14.22 154.26 14.196V13.512C155.148 13.536 155.988 13.56 156.78 13.584C157.572 13.608 158.496 13.62 159.552 13.62C160.968 13.62 162.108 13.584 162.972 13.512V14.196C162.18 14.364 161.352 14.7 160.488 15.204C159.624 15.708 158.7 16.524 157.716 17.652L150.588 26.004H147.6ZM177.735 13.008C180.279 13.008 182.499 13.524 184.395 14.556C186.315 15.588 187.803 17.076 188.859 19.02C189.915 20.94 190.443 23.28 190.443 26.04C190.443 28.728 189.903 31.08 188.823 33.096C187.743 35.112 186.231 36.684 184.287 37.812C182.367 38.94 180.171 39.504 177.699 39.504C175.155 39.504 172.923 38.988 171.003 37.956C169.107 36.924 167.631 35.436 166.575 33.492C165.519 31.548 164.991 29.208 164.991 26.472C164.991 23.784 165.531 21.432 166.611 19.416C167.715 17.4 169.215 15.828 171.111 14.7C173.031 13.572 175.239 13.008 177.735 13.008ZM177.591 13.656C176.247 13.656 175.071 14.196 174.063 15.276C173.079 16.356 172.311 17.844 171.759 19.74C171.231 21.636 170.967 23.832 170.967 26.328C170.967 28.872 171.267 31.092 171.867 32.988C172.491 34.86 173.319 36.312 174.351 37.344C175.407 38.352 176.571 38.856 177.843 38.856C179.187 38.856 180.351 38.316 181.335 37.236C182.343 36.156 183.111 34.668 183.639 32.772C184.191 30.852 184.467 28.656 184.467 26.184C184.467 23.616 184.155 21.396 183.531 19.524C182.931 17.652 182.103 16.212 181.047 15.204C180.015 14.172 178.863 13.656 177.591 13.656ZM216.408 13.512V14.232C215.592 14.256 214.968 14.352 214.536 14.52C214.128 14.664 213.852 14.952 213.708 15.384C213.564 15.792 213.492 16.44 213.492 17.328V35.184C213.492 36.048 213.564 36.696 213.708 37.128C213.852 37.56 214.128 37.848 214.536 37.992C214.968 38.136 215.592 38.232 216.408 38.28V39C215.76 38.952 214.908 38.928 213.852 38.928C212.82 38.904 211.716 38.892 210.54 38.892C209.412 38.892 208.308 38.904 207.228 38.928C206.148 38.928 205.26 38.952 204.564 39V38.28C205.452 38.232 206.124 38.136 206.58 37.992C207.06 37.848 207.372 37.56 207.516 37.128C207.684 36.696 207.768 36.048 207.768 35.184V17.328C207.768 16.008 207.576 15.168 207.192 14.808C206.832 14.424 206.196 14.232 205.284 14.232H205.032C204.456 14.232 203.988 14.316 203.628 14.484C203.292 14.628 203.04 14.928 202.872 15.384C202.728 15.816 202.62 16.464 202.548 17.328C202.404 19.008 202.26 20.856 202.116 22.872C201.972 24.864 201.78 26.844 201.54 28.812C201.3 30.756 200.928 32.544 200.424 34.176C199.944 35.784 199.272 37.08 198.408 38.064C197.544 39.024 196.416 39.504 195.024 39.504C193.944 39.504 193.008 39.204 192.216 38.604C191.448 37.98 191.064 37.164 191.064 36.156C191.064 35.22 191.376 34.476 192 33.924C192.648 33.372 193.428 33.096 194.34 33.096C195.132 33.096 195.768 33.3 196.248 33.708C196.752 34.092 197.004 34.632 197.004 35.328C197.004 36.168 196.728 36.876 196.176 37.452C195.648 38.004 194.964 38.4 194.124 38.64C194.244 38.712 194.376 38.76 194.52 38.784C194.688 38.808 194.856 38.82 195.024 38.82C196.128 38.82 197.052 38.4 197.796 37.56C198.54 36.72 199.14 35.58 199.596 34.14C200.076 32.676 200.448 31.02 200.712 29.172C200.976 27.324 201.18 25.392 201.324 23.376C201.468 21.336 201.6 19.32 201.72 17.328C201.816 16.056 201.672 15.24 201.288 14.88C200.928 14.496 200.1 14.28 198.804 14.232V13.512C199.308 13.536 199.908 13.56 200.604 13.584C201.3 13.608 201.936 13.62 202.512 13.62C203.064 13.62 203.592 13.608 204.096 13.584C204.624 13.536 205.152 13.512 205.68 13.512C206.592 13.512 207.42 13.536 208.164 13.584C208.908 13.608 209.796 13.62 210.828 13.62C211.428 13.62 212.076 13.62 212.772 13.62C213.492 13.596 214.164 13.584 214.788 13.584C215.436 13.56 215.976 13.536 216.408 13.512ZM242.319 13.512V14.232C241.503 14.256 240.879 14.352 240.447 14.52C240.039 14.664 239.763 14.952 239.619 15.384C239.475 15.792 239.403 16.44 239.403 17.328V35.184C239.403 36.048 239.475 36.696 239.619 37.128C239.763 37.56 240.039 37.848 240.447 37.992C240.879 38.136 241.503 38.232 242.319 38.28V39C241.671 38.952 240.819 38.928 239.763 38.928C238.731 38.904 237.627 38.892 236.451 38.892C235.323 38.892 234.219 38.904 233.139 38.928C232.059 38.928 231.171 38.952 230.475 39V38.28C231.363 38.232 232.035 38.136 232.491 37.992C232.971 37.848 233.283 37.56 233.427 37.128C233.595 36.696 233.679 36.048 233.679 35.184V17.328C233.679 16.008 233.487 15.168 233.103 14.808C232.743 14.424 232.107 14.232 231.195 14.232H230.943C230.367 14.232 229.899 14.316 229.539 14.484C229.203 14.628 228.951 14.928 228.783 15.384C228.639 15.816 228.531 16.464 228.459 17.328C228.315 19.008 228.171 20.856 228.027 22.872C227.883 24.864 227.691 26.844 227.451 28.812C227.211 30.756 226.839 32.544 226.335 34.176C225.855 35.784 225.183 37.08 224.319 38.064C223.455 39.024 222.327 39.504 220.935 39.504C219.855 39.504 218.919 39.204 218.127 38.604C217.359 37.98 216.975 37.164 216.975 36.156C216.975 35.22 217.287 34.476 217.911 33.924C218.559 33.372 219.339 33.096 220.251 33.096C221.043 33.096 221.679 33.3 222.159 33.708C222.663 34.092 222.915 34.632 222.915 35.328C222.915 36.168 222.639 36.876 222.087 37.452C221.559 38.004 220.875 38.4 220.035 38.64C220.155 38.712 220.287 38.76 220.431 38.784C220.599 38.808 220.767 38.82 220.935 38.82C222.039 38.82 222.963 38.4 223.707 37.56C224.451 36.72 225.051 35.58 225.507 34.14C225.987 32.676 226.359 31.02 226.623 29.172C226.887 27.324 227.091 25.392 227.235 23.376C227.379 21.336 227.511 19.32 227.631 17.328C227.727 16.056 227.583 15.24 227.199 14.88C226.839 14.496 226.011 14.28 224.715 14.232V13.512C225.219 13.536 225.819 13.56 226.515 13.584C227.211 13.608 227.847 13.62 228.423 13.62C228.975 13.62 229.503 13.608 230.007 13.584C230.535 13.536 231.063 13.512 231.591 13.512C232.503 13.512 233.331 13.536 234.075 13.584C234.819 13.608 235.707 13.62 236.739 13.62C237.339 13.62 237.987 13.62 238.683 13.62C239.403 13.596 240.075 13.584 240.699 13.584C241.347 13.56 241.887 13.536 242.319 13.512ZM263.873 13.512C263.777 14.568 263.705 15.588 263.657 16.572C263.633 17.556 263.621 18.312 263.621 18.84C263.621 19.32 263.633 19.776 263.657 20.208C263.681 20.64 263.705 21 263.729 21.288H262.901C262.661 19.536 262.289 18.156 261.785 17.148C261.281 16.116 260.621 15.396 259.805 14.988C259.013 14.556 258.077 14.34 256.997 14.34H255.521C254.801 14.34 254.261 14.4 253.901 14.52C253.565 14.64 253.337 14.88 253.217 15.24C253.097 15.576 253.037 16.128 253.037 16.896V35.616C253.037 36.36 253.097 36.912 253.217 37.272C253.337 37.632 253.565 37.872 253.901 37.992C254.261 38.112 254.801 38.172 255.521 38.172H257.285C258.365 38.172 259.313 37.944 260.129 37.488C260.969 37.008 261.677 36.204 262.253 35.076C262.853 33.948 263.309 32.424 263.621 30.504H264.449C264.377 31.272 264.341 32.28 264.341 33.528C264.341 34.08 264.353 34.86 264.377 35.868C264.401 36.876 264.473 37.92 264.593 39C263.369 38.952 261.989 38.928 260.453 38.928C258.917 38.904 257.549 38.892 256.349 38.892C255.533 38.892 254.453 38.892 253.109 38.892C251.765 38.892 250.337 38.904 248.825 38.928C247.313 38.928 245.909 38.952 244.613 39V38.28C245.381 38.232 245.957 38.136 246.341 37.992C246.725 37.848 246.977 37.56 247.097 37.128C247.241 36.696 247.313 36.048 247.313 35.184V17.328C247.313 16.44 247.241 15.792 247.097 15.384C246.977 14.952 246.713 14.664 246.305 14.52C245.921 14.352 245.357 14.256 244.613 14.232V13.512C245.909 13.536 247.313 13.56 248.825 13.584C250.337 13.608 251.765 13.62 253.109 13.62C254.453 13.62 255.533 13.62 256.349 13.62C257.453 13.62 258.701 13.62 260.093 13.62C261.509 13.596 262.769 13.56 263.873 13.512ZM258.257 25.824C258.257 25.824 258.257 25.944 258.257 26.184C258.257 26.424 258.257 26.544 258.257 26.544H251.957C251.957 26.544 251.957 26.424 251.957 26.184C251.957 25.944 251.957 25.824 251.957 25.824H258.257ZM259.301 21.072C259.205 22.44 259.157 23.484 259.157 24.204C259.181 24.924 259.193 25.584 259.193 26.184C259.193 26.784 259.205 27.444 259.229 28.164C259.253 28.884 259.313 29.928 259.409 31.296H258.581C258.461 30.456 258.233 29.676 257.897 28.956C257.585 28.236 257.129 27.66 256.529 27.228C255.929 26.772 255.149 26.544 254.189 26.544V25.824C255.149 25.824 255.917 25.56 256.493 25.032C257.069 24.504 257.513 23.88 257.825 23.16C258.137 22.416 258.353 21.72 258.473 21.072H259.301ZM278.553 13.512V14.232C277.785 14.256 277.197 14.352 276.789 14.52C276.405 14.664 276.153 14.952 276.033 15.384C275.913 15.792 275.853 16.44 275.853 17.328V35.184C275.853 36.048 275.913 36.696 276.033 37.128C276.177 37.56 276.441 37.848 276.825 37.992C277.209 38.136 277.785 38.232 278.553 38.28V39C277.905 38.952 277.089 38.928 276.105 38.928C275.121 38.904 274.125 38.892 273.117 38.892C271.965 38.892 270.873 38.904 269.841 38.928C268.833 38.928 268.029 38.952 267.429 39V38.28C268.197 38.232 268.773 38.136 269.157 37.992C269.541 37.848 269.793 37.56 269.913 37.128C270.057 36.696 270.129 36.048 270.129 35.184V17.328C270.129 16.44 270.057 15.792 269.913 15.384C269.793 14.952 269.529 14.664 269.121 14.52C268.737 14.352 268.173 14.256 267.429 14.232V13.512C268.029 13.536 268.833 13.56 269.841 13.584C270.873 13.608 271.965 13.62 273.117 13.62C274.125 13.62 275.121 13.608 276.105 13.584C277.089 13.56 277.905 13.536 278.553 13.512ZM276.897 25.392C278.817 25.392 280.485 25.536 281.901 25.824C283.341 26.088 284.493 26.58 285.357 27.3C286.245 27.996 286.845 29.028 287.157 30.396L288.201 35.22C288.393 36.204 288.609 36.888 288.849 37.272C289.089 37.632 289.449 37.812 289.929 37.812C290.217 37.788 290.457 37.716 290.649 37.596C290.865 37.452 291.093 37.248 291.333 36.984L291.837 37.416C291.189 38.136 290.493 38.664 289.749 39C289.005 39.336 288.105 39.504 287.049 39.504C285.753 39.504 284.685 39.24 283.845 38.712C283.005 38.16 282.453 37.128 282.189 35.616L281.217 30.108C281.049 29.148 280.797 28.368 280.461 27.768C280.149 27.168 279.669 26.724 279.021 26.436C278.373 26.148 277.473 26.004 276.321 26.004H274.917V25.392H276.897ZM275.709 26.004V25.392C276.741 25.368 277.677 25.092 278.517 24.564C279.357 24.012 280.257 23.172 281.217 22.044L283.341 19.488C284.277 18.408 284.817 17.484 284.961 16.716C285.105 15.924 284.949 15.312 284.493 14.88C284.037 14.448 283.329 14.22 282.369 14.196V13.512C283.257 13.536 284.097 13.56 284.889 13.584C285.681 13.608 286.605 13.62 287.661 13.62C289.077 13.62 290.217 13.584 291.081 13.512V14.196C290.289 14.364 289.461 14.7 288.597 15.204C287.733 15.708 286.809 16.524 285.825 17.652L278.697 26.004H275.709ZM319.762 13.512V14.232C318.994 14.256 318.418 14.352 318.034 14.52C317.65 14.664 317.386 14.952 317.242 15.384C317.122 15.792 317.062 16.44 317.062 17.328V35.184C317.062 36.504 317.218 37.356 317.53 37.74C317.866 38.1 318.61 38.28 319.762 38.28H320.842C320.746 39.216 320.674 40.116 320.626 40.98C320.602 41.844 320.59 42.504 320.59 42.96C320.59 43.92 320.626 44.7 320.698 45.3H319.87C319.63 43.716 319.246 42.456 318.718 41.52C318.19 40.608 317.506 39.96 316.666 39.576C315.85 39.192 314.878 39 313.75 39C312.958 39 312.13 39 311.266 39C310.426 39 309.598 39 308.782 39C307.966 39 307.222 39 306.55 39C305.71 39 304.606 38.988 303.238 38.964C301.87 38.916 300.478 38.892 299.062 38.892C297.91 38.892 296.818 38.904 295.786 38.928C294.778 38.928 293.974 38.952 293.374 39V38.28C294.118 38.232 294.682 38.136 295.066 37.992C295.474 37.848 295.738 37.56 295.858 37.128C296.002 36.696 296.074 36.048 296.074 35.184V17.328C296.074 16.44 296.002 15.792 295.858 15.384C295.738 14.952 295.474 14.664 295.066 14.52C294.682 14.352 294.118 14.256 293.374 14.232V13.512C293.974 13.536 294.778 13.56 295.786 13.584C296.818 13.608 297.91 13.62 299.062 13.62C300.07 13.62 301.066 13.608 302.05 13.584C303.034 13.56 303.85 13.536 304.498 13.512V14.232C303.73 14.256 303.154 14.352 302.77 14.52C302.386 14.664 302.122 14.952 301.978 15.384C301.858 15.792 301.798 16.44 301.798 17.328V35.184C301.798 36.504 301.978 37.356 302.338 37.74C302.698 38.1 303.49 38.28 304.714 38.28H308.422C309.646 38.28 310.438 38.1 310.798 37.74C311.158 37.356 311.338 36.504 311.338 35.184V17.328C311.338 16.44 311.266 15.792 311.122 15.384C311.002 14.952 310.738 14.664 310.33 14.52C309.946 14.352 309.382 14.256 308.638 14.232V13.512C309.262 13.536 310.066 13.56 311.05 13.584C312.058 13.608 313.066 13.62 314.074 13.62C315.226 13.62 316.306 13.608 317.314 13.584C318.322 13.56 319.138 13.536 319.762 13.512ZM333.608 13.512V14.232C332.84 14.256 332.264 14.352 331.88 14.52C331.496 14.664 331.232 14.952 331.088 15.384C330.968 15.792 330.908 16.44 330.908 17.328V35.184C330.908 36.048 330.968 36.696 331.088 37.128C331.232 37.56 331.496 37.848 331.88 37.992C332.264 38.136 332.84 38.232 333.608 38.28V39C332.96 38.952 332.144 38.928 331.16 38.928C330.176 38.904 329.18 38.892 328.172 38.892C326.996 38.892 325.904 38.904 324.896 38.928C323.912 38.928 323.108 38.952 322.484 39V38.28C323.228 38.232 323.792 38.136 324.176 37.992C324.584 37.848 324.848 37.56 324.968 37.128C325.112 36.696 325.184 36.048 325.184 35.184V17.328C325.184 16.44 325.112 15.792 324.968 15.384C324.848 14.952 324.584 14.664 324.176 14.52C323.792 14.352 323.228 14.256 322.484 14.232V13.512C323.108 13.536 323.912 13.56 324.896 13.584C325.904 13.608 326.996 13.62 328.172 13.62C329.18 13.62 330.176 13.608 331.16 13.584C332.144 13.56 332.96 13.536 333.608 13.512ZM341.888 15.492C341.888 15.492 341.888 15.624 341.888 15.888C341.888 16.128 341.888 16.38 341.888 16.644C341.912 16.908 341.924 17.04 341.924 17.04L329.9 37.38L329.576 36.372L341.888 15.492ZM349.592 13.512V14.232C348.824 14.256 348.248 14.352 347.864 14.52C347.48 14.664 347.216 14.952 347.072 15.384C346.952 15.792 346.892 16.44 346.892 17.328V35.184C346.892 36.048 346.952 36.696 347.072 37.128C347.216 37.56 347.48 37.848 347.864 37.992C348.248 38.136 348.824 38.232 349.592 38.28V39C348.968 38.952 348.152 38.928 347.144 38.928C346.136 38.904 345.056 38.892 343.904 38.892C342.896 38.892 341.888 38.904 340.88 38.928C339.896 38.928 339.092 38.952 338.468 39V38.28C339.212 38.232 339.776 38.136 340.16 37.992C340.544 37.848 340.808 37.56 340.952 37.128C341.096 36.696 341.168 36.048 341.168 35.184V17.328C341.168 16.44 341.096 15.792 340.952 15.384C340.808 14.952 340.544 14.664 340.16 14.52C339.776 14.352 339.212 14.256 338.468 14.232V13.512C339.092 13.536 339.896 13.56 340.88 13.584C341.888 13.608 342.896 13.62 343.904 13.62C345.056 13.62 346.136 13.608 347.144 13.584C348.152 13.56 348.968 13.536 349.592 13.512ZM374.695 13.512V14.232C373.927 14.256 373.351 14.352 372.967 14.52C372.583 14.664 372.319 14.952 372.175 15.384C372.055 15.792 371.995 16.44 371.995 17.328V35.184C371.995 36.048 372.055 36.696 372.175 37.128C372.319 37.56 372.583 37.848 372.967 37.992C373.351 38.136 373.927 38.232 374.695 38.28V39C374.095 38.952 373.279 38.928 372.247 38.928C371.239 38.904 370.159 38.892 369.007 38.892C368.023 38.892 367.027 38.904 366.019 38.928C365.011 38.928 364.195 38.952 363.571 39V38.28C364.315 38.232 364.879 38.136 365.263 37.992C365.671 37.848 365.935 37.56 366.055 37.128C366.199 36.696 366.271 36.048 366.271 35.184V17.328C366.271 16.08 366.127 15.252 365.839 14.844C365.575 14.436 364.975 14.232 364.039 14.232C362.407 14.232 361.255 14.748 360.583 15.78C359.911 16.812 359.575 18.252 359.575 20.1C359.575 21.228 359.707 22.26 359.971 23.196C360.235 24.108 360.739 24.84 361.483 25.392C362.227 25.92 363.307 26.184 364.723 26.184H367.819C367.819 26.184 367.819 26.304 367.819 26.544C367.819 26.784 367.819 26.904 367.819 26.904H364.363C361.531 26.904 359.335 26.58 357.775 25.932C356.215 25.284 355.123 24.432 354.499 23.376C353.899 22.32 353.599 21.204 353.599 20.028C353.599 17.964 354.415 16.368 356.047 15.24C357.703 14.112 360.211 13.548 363.571 13.548C364.027 13.548 364.783 13.56 365.839 13.584C366.919 13.608 368.047 13.62 369.223 13.62C370.231 13.62 371.239 13.608 372.247 13.584C373.279 13.56 374.095 13.536 374.695 13.512ZM367.603 26.292L367.531 26.904H363.643C362.899 26.904 362.311 27.132 361.879 27.588C361.471 28.02 361.147 28.62 360.907 29.388C360.667 30.132 360.463 31.008 360.295 32.016L359.647 35.616C359.383 37.104 358.831 38.124 357.991 38.676C357.151 39.228 356.095 39.504 354.823 39.504C353.791 39.504 352.903 39.336 352.159 39C351.415 38.688 350.731 38.16 350.107 37.416L350.611 36.984C350.851 37.248 351.067 37.452 351.259 37.596C351.475 37.716 351.739 37.788 352.051 37.812C352.507 37.812 352.855 37.62 353.095 37.236C353.335 36.852 353.551 36.18 353.743 35.22L354.499 31.512C354.811 29.976 355.519 28.872 356.623 28.2C357.727 27.528 359.311 27.06 361.375 26.796C361.831 26.724 362.287 26.664 362.743 26.616C363.199 26.568 363.799 26.52 364.543 26.472C365.311 26.4 366.331 26.34 367.603 26.292Z" fill="white"/>
<line x1="129" y1="68.5" x2="249" y2="68.5" stroke="white"/>
<rect x="119.5" y="99.5" width="137" height="46" stroke="white"/>
<path d="M150.971 123.168H150.125V129H148.631V116.4H150.125V122.268L150.935 122.016L155.165 116.4H156.893L152.681 121.818L151.925 122.412L152.843 123.132L157.451 129H155.561L150.971 123.168ZM167.411 125.508H162.767L161.507 129H160.031L164.801 116.202H165.485L170.273 129H168.707L167.411 125.508ZM163.253 124.212H166.961L165.557 120.378L165.107 118.47H165.089L164.639 120.414L163.253 124.212ZM180.67 117.732H176.746V129H175.252V117.732H171.328V116.4H180.67V117.732ZM189.099 125.508H184.455L183.195 129H181.719L186.489 116.202H187.173L191.961 129H190.395L189.099 125.508ZM184.941 124.212H188.649L187.245 120.378L186.795 118.47H186.777L186.327 120.414L184.941 124.212ZM202.007 117.732H198.245C198.125 120.132 197.963 122.13 197.759 123.726C197.567 125.31 197.273 126.546 196.877 127.434C196.613 128.01 196.301 128.43 195.941 128.694C195.581 128.958 195.191 129.09 194.771 129.09C194.555 129.09 194.369 129.072 194.213 129.036C194.057 129.012 193.907 128.97 193.763 128.91L193.961 127.614C194.081 127.65 194.207 127.668 194.339 127.668C194.543 127.668 194.741 127.602 194.933 127.47C195.137 127.338 195.335 127.092 195.527 126.732C195.695 126.408 195.851 125.976 195.995 125.436C196.151 124.896 196.283 124.212 196.391 123.384C196.511 122.556 196.607 121.572 196.679 120.432C196.751 119.28 196.805 117.936 196.841 116.4H203.501V129H202.007V117.732ZM207.839 122.7C207.839 120.6 208.283 118.992 209.171 117.876C210.059 116.748 211.325 116.184 212.969 116.184C213.857 116.184 214.625 116.34 215.273 116.652C215.921 116.964 216.455 117.408 216.875 117.984C217.307 118.548 217.625 119.232 217.829 120.036C218.033 120.828 218.135 121.716 218.135 122.7C218.135 124.8 217.685 126.414 216.785 127.542C215.897 128.658 214.625 129.216 212.969 129.216C212.093 129.216 211.331 129.06 210.683 128.748C210.047 128.436 209.513 127.998 209.081 127.434C208.661 126.858 208.349 126.174 208.145 125.382C207.941 124.578 207.839 123.684 207.839 122.7ZM209.423 122.7C209.423 123.396 209.489 124.056 209.621 124.68C209.765 125.304 209.981 125.856 210.269 126.336C210.557 126.804 210.923 127.182 211.367 127.47C211.823 127.746 212.357 127.884 212.969 127.884C214.085 127.884 214.961 127.464 215.597 126.624C216.233 125.772 216.551 124.464 216.551 122.7C216.551 122.016 216.479 121.362 216.335 120.738C216.203 120.102 215.987 119.55 215.687 119.082C215.399 118.602 215.027 118.224 214.571 117.948C214.127 117.66 213.593 117.516 212.969 117.516C211.865 117.516 210.995 117.942 210.359 118.794C209.735 119.634 209.423 120.936 209.423 122.7ZM229.216 117.732H223.96V129H222.466V116.4H229.216V117.732Z" fill="white"/>
</svg>
